<svg width="16" height="12" viewBox="0 0 16 12" fill="none" xmlns="http://www.w3.org/2000/svg">
<path fill-rule="evenodd" clip-rule="evenodd" d="M11.8082 11.8261C14.8356 11.7275 16 9.68615 16 9.68615C16 5.15286 14.0274 1.47836 14.0274 1.47836C12.0548 -0.0421183 10.1781 0.000116993 10.1781 0.000116993L9.9863 0.225373C12.3151 0.957457 13.3973 2.01335 13.3973 2.01335C11.9726 1.21087 10.5753 0.816672 9.27397 0.661808C8.28767 0.54918 7.34247 0.577337 6.50685 0.689965L6.27397 0.718122C5.79452 0.760358 4.63014 0.943379 3.16438 1.60507C2.65753 1.84441 2.35616 2.01335 2.35616 2.01335C2.35616 2.01335 3.49315 0.901143 5.9589 0.169059L5.82192 0.000116993C5.82192 0.000116993 3.94521 -0.0421183 1.9726 1.47836C1.9726 1.47836 0 5.15286 0 9.68615C0 9.68615 1.15068 11.7275 4.17808 11.8261C4.17808 11.8261 4.68493 11.1926 5.09589 10.6576C3.35616 10.1226 2.69863 8.9963 2.69863 8.9963L3.08219 9.23564L3.13699 9.27787L3.19064 9.30955L3.20662 9.31659L3.26027 9.34827C3.60274 9.54536 3.9452 9.70023 4.26027 9.82694C4.82192 10.0522 5.49315 10.2774 6.27397 10.4323C7.30137 10.6294 8.50685 10.6998 9.82192 10.4464C10.4658 10.3338 11.1233 10.1367 11.8082 9.84101C12.2877 9.65799 12.8219 9.3905 13.3836 9.01038C13.3836 9.01038 12.6986 10.1648 10.9041 10.6857C11.3151 11.2207 11.8082 11.8261 11.8082 11.8261ZM5.43836 5.25141C4.65753 5.25141 4.0411 5.95534 4.0411 6.81413C4.0411 7.67292 4.67123 8.37685 5.43836 8.37685C6.21918 8.37685 6.83562 7.67292 6.83562 6.81413C6.84932 5.95534 6.21918 5.25141 5.43836 5.25141ZM10.4384 5.25141C9.65753 5.25141 9.0411 5.95534 9.0411 6.81413C9.0411 7.67292 9.67123 8.37685 10.4384 8.37685C11.2192 8.37685 11.8356 7.67292 11.8356 6.81413C11.8356 5.95534 11.2192 5.25141 10.4384 5.25141Z" fill="#CCCCCC"/>
</svg>
