<svg width="21" height="20" viewBox="0 0 21 20" fill="none" xmlns="http://www.w3.org/2000/svg">
<path fill-rule="evenodd" clip-rule="evenodd" d="M19.3755 5.10534C18.4588 3.53477 17.2154 2.29135 15.645 1.37479C14.0743 0.458185 12.3596 0 10.4997 0C8.63996 0 6.9247 0.458325 5.35437 1.37479C3.78379 2.2913 2.54046 3.53477 1.62381 5.10534C0.707302 6.67587 0.249023 8.39089 0.249023 10.2504C0.249023 12.484 0.900702 14.4926 2.20439 16.2766C3.50793 18.0607 5.19191 19.2952 7.2562 19.9803C7.49649 20.0249 7.67437 19.9936 7.79002 19.887C7.90573 19.7804 7.96351 19.6467 7.96351 19.4868C7.96351 19.4601 7.96122 19.2199 7.95678 18.766C7.9522 18.3122 7.95005 17.9162 7.95005 17.5783L7.64305 17.6315C7.44731 17.6673 7.20038 17.6825 6.90226 17.6782C6.60429 17.674 6.29495 17.6428 5.97467 17.5847C5.65426 17.5272 5.35624 17.3937 5.08037 17.1846C4.80465 16.9755 4.60891 16.7018 4.49321 16.3639L4.35974 16.0568C4.27078 15.8523 4.13072 15.6251 3.93937 15.3761C3.74803 15.1269 3.55454 14.958 3.3588 14.869L3.26535 14.8021C3.20308 14.7577 3.1453 14.704 3.09186 14.6418C3.03848 14.5796 2.99851 14.5173 2.97181 14.455C2.94507 14.3926 2.96723 14.3414 3.03852 14.3012C3.10982 14.261 3.23866 14.2416 3.4256 14.2416L3.69245 14.2814C3.87042 14.3171 4.09056 14.4236 4.35315 14.6017C4.61559 14.7796 4.83134 15.0109 5.00043 15.2956C5.20519 15.6605 5.45188 15.9385 5.74121 16.1299C6.03031 16.3212 6.32178 16.4167 6.61537 16.4167C6.90895 16.4167 7.16251 16.3945 7.37616 16.3502C7.58957 16.3057 7.78979 16.2388 7.97674 16.1499C8.05682 15.5535 8.27486 15.0953 8.63066 14.775C8.12353 14.7217 7.66759 14.6414 7.2626 14.5347C6.85785 14.4278 6.43959 14.2544 6.0081 14.0139C5.57638 13.7738 5.21823 13.4756 4.93358 13.1198C4.64888 12.7639 4.41523 12.2966 4.23296 11.7183C4.05059 11.1399 3.95938 10.4726 3.95938 9.71627C3.95938 8.63941 4.31093 7.72304 5.01389 6.96665C4.6846 6.15705 4.71568 5.24947 5.10725 4.244C5.3653 4.16382 5.74799 4.22399 6.25512 4.42412C6.76234 4.62434 7.13372 4.79587 7.36961 4.93808C7.60551 5.08024 7.79451 5.20071 7.93691 5.29842C8.7646 5.06715 9.61874 4.95149 10.4996 4.95149C11.3804 4.95149 12.2348 5.06715 13.0625 5.29842L13.5697 4.97823C13.9165 4.76459 14.3261 4.56881 14.7974 4.39083C15.269 4.21295 15.6296 4.16396 15.8789 4.24414C16.2791 5.24966 16.3148 6.15719 15.9854 6.96679C16.6883 7.72318 17.04 8.63979 17.04 9.71641C17.04 10.4727 16.9485 11.1421 16.7664 11.725C16.5841 12.308 16.3484 12.7749 16.0593 13.1265C15.7699 13.4781 15.4095 13.774 14.978 14.0141C14.5464 14.2544 14.128 14.4278 13.7232 14.5347C13.3183 14.6415 12.8624 14.7219 12.3552 14.7752C12.8178 15.1755 13.0491 15.8073 13.0491 16.6704V19.4864C13.0491 19.6464 13.1047 19.7799 13.2161 19.8867C13.3273 19.9932 13.5029 20.0246 13.7432 19.9799C15.8078 19.2949 17.4918 18.0603 18.7952 16.2762C20.0986 14.4922 20.7505 12.4837 20.7505 10.25C20.7501 8.39075 20.2915 6.67587 19.3755 5.10534Z" fill="#CFFFC4"/>
</svg>
