<svg width="119" height="32" viewBox="0 0 119 32" fill="none" xmlns="http://www.w3.org/2000/svg">
<path fill-rule="evenodd" clip-rule="evenodd" d="M11.9848 0H9.55134V5.35444C4.18152 5.93083 0 10.4771 0 16C0 21.5229 4.18152 26.0692 9.55134 26.6456V32H11.9848V26.6318C17.296 26.0003 21.4144 21.4811 21.4144 16C21.4144 10.5189 17.296 5.99969 11.9848 5.36821V0ZM2.43346 16C2.43346 11.8228 5.52906 8.3686 9.55134 7.80634V24.1937C5.52906 23.6314 2.43346 20.1772 2.43346 16ZM18.981 16C18.981 20.135 15.9477 23.5615 11.9848 24.1757V7.82427C15.9477 8.43852 18.981 11.865 18.981 16ZM32.4294 11.7431C32.4294 10.9945 32.5417 10.3333 32.7663 9.75939C32.9909 9.18548 33.3152 8.70426 33.7394 8.31571C34.1636 7.92716 34.6751 7.6313 35.274 7.42811C35.8729 7.22493 36.5466 7.12334 37.2952 7.12334C37.7871 7.12334 38.2558 7.16076 38.7014 7.23562C39.147 7.31048 39.6122 7.39781 40.097 7.49762L39.8724 9.52947C39.5944 9.45105 39.27 9.38154 38.8993 9.32094C38.5285 9.26034 38.1115 9.23004 37.6481 9.23004C36.7284 9.23004 36.0564 9.44748 35.6323 9.88237C35.2081 10.3173 34.996 10.9375 34.996 11.7431V12.4596H39.2949V14.3631H34.996V24.0304H32.4294V14.3631H29.3175V12.4596H32.4294V11.7431ZM63.2279 22.4477C62.8358 23.0181 62.3599 23.4619 61.8003 23.7791C61.2406 24.0964 60.615 24.255 59.9235 24.255C59.3246 24.255 58.7775 24.1623 58.282 23.9769C57.7865 23.7916 57.3623 23.4975 57.0094 23.0947C56.6565 22.6919 56.382 22.1786 56.186 21.5548C55.9899 20.931 55.8919 20.1806 55.8919 19.3037V12.4596H58.4477V19.3251C58.4477 19.8812 58.4887 20.341 58.5707 20.7046C58.6527 21.0682 58.7792 21.3569 58.9503 21.5708C59.1214 21.7847 59.3353 21.9362 59.592 22.0253C59.8486 22.1144 60.1552 22.159 60.5117 22.159C61.1961 22.159 61.7486 22.0253 62.1692 21.758C62.5898 21.4906 62.9071 21.1288 63.121 20.6725V12.4596H65.6875V24.0304H63.3776L63.2279 22.4477ZM74.3389 24.2443C73.4834 24.2443 72.7027 24.1017 71.9969 23.8165C71.2911 23.5314 70.6869 23.1393 70.1843 22.6402C69.6817 22.1412 69.2914 21.5512 69.0133 20.8704C68.7353 20.1895 68.5963 19.4534 68.5963 18.6621V18.2236C68.5963 17.3039 68.7442 16.477 69.0401 15.7426C69.3359 15.0083 69.7316 14.3809 70.2271 13.8605C70.7226 13.3401 71.3 12.9408 71.9595 12.6628C72.619 12.3847 73.3123 12.2457 74.0395 12.2457C74.8807 12.2457 75.6222 12.3865 76.2638 12.6681C76.9054 12.9497 77.4419 13.3454 77.8732 13.8552C78.3046 14.3649 78.6307 14.9691 78.8517 15.6678C79.0727 16.3664 79.1832 17.1328 79.1832 17.967V19.0471H71.1628C71.2056 19.4962 71.3161 19.9133 71.4943 20.2982C71.6725 20.6832 71.906 21.0165 72.1948 21.2981C72.4835 21.5797 72.8221 21.8007 73.2107 21.9611C73.5992 22.1216 74.0252 22.2018 74.4886 22.2018C75.1374 22.2018 75.7344 22.0734 76.2798 21.8168C76.8252 21.5601 77.269 21.2072 77.6112 20.7581L79.0014 22.0627C78.8161 22.3408 78.5772 22.6099 78.2849 22.8701C77.9926 23.1303 77.6504 23.362 77.2583 23.5652C76.8662 23.7684 76.426 23.9324 75.9376 24.0572C75.4493 24.1819 74.9164 24.2443 74.3389 24.2443ZM74.0288 14.3096C73.6723 14.3096 73.3408 14.3738 73.0342 14.5021C72.7277 14.6305 72.4532 14.8176 72.2108 15.0636C71.9684 15.3095 71.7634 15.609 71.5959 15.9619C71.4284 16.3148 71.3089 16.7158 71.2377 17.1649H76.6595V16.9724C76.6381 16.6302 76.5721 16.3005 76.4616 15.9832C76.3511 15.666 76.1889 15.3826 75.9751 15.1331C75.7612 14.8836 75.4921 14.6839 75.1677 14.5342C74.8433 14.3845 74.4637 14.3096 74.0288 14.3096ZM84.4019 12.4596L84.5623 14.0637C84.9829 13.4862 85.4909 13.0389 86.0862 12.7216C86.6815 12.4043 87.3427 12.2457 88.0699 12.2457C88.6616 12.2457 89.2017 12.3313 89.69 12.5024C90.1784 12.6735 90.599 12.9408 90.9519 13.3044C91.3048 13.668 91.5793 14.1385 91.7753 14.716C91.9714 15.2935 92.0694 15.9886 92.0694 16.8013V24.0304H89.5136V16.8441C89.5136 16.3664 89.4583 15.9672 89.3478 15.6464C89.2373 15.3256 89.0805 15.0689 88.8773 14.8764C88.6741 14.6839 88.4263 14.5467 88.134 14.4647C87.8417 14.3827 87.5102 14.3417 87.1395 14.3417C86.5763 14.3417 86.0862 14.4665 85.6691 14.716C85.252 14.9655 84.9152 15.3042 84.6585 15.7319V24.0304H82.092V12.4596H84.4019ZM100.293 22.2125C100.607 22.2125 100.911 22.1625 101.207 22.0627C101.503 21.9629 101.765 21.8239 101.993 21.6457C102.221 21.4674 102.402 21.2571 102.533 21.0147C102.665 20.7723 102.728 20.5086 102.721 20.2234H105.137C105.145 20.7795 105.018 21.3017 104.758 21.79C104.498 22.2784 104.145 22.7044 103.699 23.068C103.253 23.4316 102.738 23.7203 102.154 23.9342C101.569 24.1481 100.956 24.255 100.314 24.255C99.4232 24.255 98.6426 24.1017 97.9724 23.7952C97.3023 23.4886 96.7426 23.0698 96.2935 22.5386C95.8444 22.0075 95.5075 21.3908 95.2829 20.6886C95.0583 19.9863 94.9461 19.2395 94.9461 18.4482V18.0632C94.9461 17.2719 95.0583 16.5233 95.2829 15.8175C95.5075 15.1117 95.8444 14.495 96.2935 13.9674C96.7426 13.4399 97.3023 13.021 97.9724 12.7109C98.6426 12.4008 99.4197 12.2457 100.304 12.2457C101.002 12.2457 101.649 12.3527 102.245 12.5665C102.84 12.7804 103.353 13.0798 103.785 13.4648C104.216 13.8498 104.551 14.3096 104.79 14.8443C105.029 15.379 105.145 15.9636 105.137 16.5981H102.721C102.728 16.2845 102.672 15.9886 102.555 15.7106C102.437 15.4325 102.268 15.1901 102.047 14.9834C101.826 14.7766 101.566 14.6126 101.266 14.4914C100.967 14.3702 100.639 14.3096 100.282 14.3096C99.7476 14.3096 99.3021 14.4184 98.9456 14.6358C98.5891 14.8533 98.304 15.1384 98.0901 15.4913C97.8762 15.8442 97.7247 16.2452 97.6356 16.6944C97.5465 17.1435 97.5019 17.5998 97.5019 18.0632V18.4482C97.5019 18.9187 97.5465 19.3786 97.6356 19.8277C97.7247 20.2769 97.8762 20.6779 98.0901 21.0308C98.304 21.3837 98.5891 21.6688 98.9456 21.8863C99.3021 22.1037 99.7512 22.2125 100.293 22.2125ZM113.767 24.2443C112.912 24.2443 112.131 24.1017 111.425 23.8165C110.72 23.5314 110.115 23.1393 109.613 22.6402C109.11 22.1412 108.72 21.5512 108.442 20.8704C108.164 20.1895 108.025 19.4534 108.025 18.6621V18.2236C108.025 17.3039 108.173 16.477 108.469 15.7426C108.764 15.0083 109.16 14.3809 109.656 13.8605C110.151 13.3401 110.729 12.9408 111.388 12.6628C112.047 12.3847 112.741 12.2457 113.468 12.2457C114.309 12.2457 115.051 12.3865 115.692 12.6681C116.334 12.9497 116.87 13.3454 117.302 13.8552C117.733 14.3649 118.059 14.9691 118.28 15.6678C118.501 16.3664 118.612 17.1328 118.612 17.967V19.0471H110.591C110.634 19.4962 110.745 19.9133 110.923 20.2982C111.101 20.6832 111.334 21.0165 111.623 21.2981C111.912 21.5797 112.251 21.8007 112.639 21.9611C113.028 22.1216 113.454 22.2018 113.917 22.2018C114.566 22.2018 115.163 22.0734 115.708 21.8168C116.254 21.5601 116.697 21.2072 117.04 20.7581L118.43 22.0627C118.245 22.3408 118.006 22.6099 117.713 22.8701C117.421 23.1303 117.079 23.362 116.687 23.5652C116.295 23.7684 115.854 23.9324 115.366 24.0572C114.878 24.1819 114.345 24.2443 113.767 24.2443ZM113.392 14.2966C113.035 14.2966 112.704 14.3607 112.397 14.4891C112.091 14.6174 111.816 14.8045 111.574 15.0505C111.332 15.2965 111.127 15.5959 110.959 15.9488C110.791 16.3017 110.672 16.7027 110.601 17.1519H116.023V16.9594C116.001 16.6172 115.935 16.2874 115.825 15.9702C115.714 15.6529 115.552 15.3695 115.338 15.12C115.124 14.8705 114.855 14.6709 114.531 14.5212C114.206 14.3714 113.827 14.2966 113.392 14.2966ZM43.134 7.60456H49.39V21.913H52.919V24.0304H43.134V21.913H46.8127V9.73265H43.134V7.60456Z" fill="white"/>
</svg>
