<svg width="30" height="46" viewBox="0 0 30 46" fill="none" xmlns="http://www.w3.org/2000/svg">
<path fill-rule="evenodd" clip-rule="evenodd" d="M13.0707 37.0888L13.0707 45.6023H16.5645V37.1359C23.9409 36.3624 29.6901 30.124 29.6901 22.5427C29.6901 14.9615 23.9409 8.72306 16.5645 7.94953V0.881836L13.0707 0.881836V7.99665C5.88618 8.94834 0.342285 15.0981 0.342285 22.5427C0.342285 29.9873 5.88617 36.1371 13.0707 37.0888ZM16.5645 33.6165C22.0063 32.8626 26.1963 28.192 26.1963 22.5427C26.1963 16.8935 22.0063 12.2228 16.5645 11.4689L16.5645 33.6165ZM13.0707 11.5313L13.0707 33.5542C7.82352 32.6335 3.83607 28.0538 3.83607 22.5427C3.83607 17.0317 7.82352 12.452 13.0707 11.5313Z" fill="white"/>
</svg>
